<svg width="8" height="45" viewBox="0 0 8 45" fill="none" xmlns="http://www.w3.org/2000/svg">
<path d="M4.5 1C4.5 0.723858 4.27614 0.5 4 0.5C3.72385 0.5 3.5 0.723858 3.5 1L4.5 1ZM3.64644 44.3535C3.84171 44.5488 4.15829 44.5488 4.35355 44.3535L7.53553 41.1716C7.73079 40.9763 7.73079 40.6597 7.53553 40.4645C7.34027 40.2692 7.02369 40.2692 6.82843 40.4645L4 43.2929L1.17157 40.4645C0.976309 40.2692 0.659726 40.2692 0.464464 40.4645C0.269202 40.6597 0.269202 40.9763 0.464464 41.1716L3.64644 44.3535ZM3.5 1L3.5 44L4.5 44L4.5 1L3.5 1Z" fill="white"/>
</svg>
